<?xml version="1.0" standalone="no"?>
<!DOCTYPE svg PUBLIC "-//W3C//DTD SVG 20010904//EN"
 "http://www.w3.org/TR/2001/REC-SVG-20010904/DTD/svg10.dtd">
<svg version="1.0" xmlns="http://www.w3.org/2000/svg"
 width="300.000000pt" height="300.000000pt" viewBox="0 0 300.000000 300.000000"
 preserveAspectRatio="xMidYMid meet">
<g transform="translate(0.000000,300.000000) scale(0.100000,-0.100000)"
   fill="#155af0" stroke="none">
<path d="M1402 2575 c-15 -11 -33 -14 -56 -9 -27 5 -41 1 -62 -15 -15 -12 -41
-21 -58 -21 -31 0 -76 -30 -76 -50 0 -6 -12 -10 -28 -10 -33 0 -72 -25 -72
-46 0 -8 -12 -20 -27 -26 -39 -17 -73 -48 -73 -69 0 -9 -16 -26 -35 -38 -27
-16 -35 -27 -35 -49 0 -18 -10 -38 -30 -57 -20 -19 -30 -39 -30 -58 0 -16 -10
-42 -21 -59 -15 -21 -20 -38 -15 -59 3 -18 -1 -43 -11 -65 -14 -29 -15 -40 -5
-66 7 -20 8 -37 2 -49 -14 -24 -12 -63 2 -77 6 -6 11 -33 9 -60 -1 -38 3 -52
19 -67 13 -12 20 -31 20 -55 0 -25 7 -43 24 -59 12 -12 28 -40 35 -61 8 -27
21 -45 41 -55 17 -9 30 -22 30 -29 0 -22 39 -64 62 -68 13 -2 27 -13 33 -24
19 -39 37 -54 64 -54 17 0 38 -11 57 -31 22 -23 35 -29 54 -26 17 4 36 -3 57
-19 26 -20 40 -24 67 -19 24 5 42 2 61 -11 23 -15 31 -16 62 -5 28 10 40 10
65 0 25 -10 34 -10 60 6 20 11 41 15 64 12 27 -5 40 0 63 19 18 15 41 24 63
24 24 0 42 8 58 25 13 14 32 25 42 25 30 0 57 18 73 50 9 17 22 30 29 30 21 0
66 40 66 58 0 9 16 27 35 40 26 17 35 29 35 50 0 18 11 38 30 57 21 20 30 38
30 60 0 17 11 46 24 64 20 27 23 37 14 56 -8 17 -5 31 10 61 18 35 19 42 6 67
-11 20 -12 32 -4 46 14 28 13 64 -4 87 -10 12 -13 33 -9 59 4 32 0 45 -16 62
-13 14 -21 35 -21 57 0 24 -7 40 -24 53 -13 11 -27 34 -31 53 -8 39 -31 70
-52 70 -7 0 -19 12 -25 28 -17 39 -38 62 -58 62 -9 0 -28 17 -41 38 -17 27
-32 38 -54 40 -17 2 -44 17 -62 34 -23 22 -38 29 -54 25 -15 -4 -33 3 -55 19
-26 20 -40 24 -63 19 -19 -4 -41 0 -62 10 -27 15 -38 15 -69 5 -28 -9 -42 -9
-58 -1 -28 15 -43 14 -70 -4z m273 -110 c141 -140 209 -334 184 -524 -8 -70
-19 -106 -19 -66 0 10 -3 16 -6 12 -3 -3 -1 -21 6 -41 8 -27 8 -40 0 -57 -9
-17 -9 -20 0 -14 8 5 11 3 8 -6 -3 -8 -11 -13 -17 -11 -7 1 -9 -2 -6 -8 4 -6
-1 -21 -12 -33 l-18 -22 23 19 c33 28 27 4 -8 -29 -16 -15 -27 -32 -24 -36 2
-4 -3 -12 -13 -17 -15 -9 -28 -42 -16 -42 3 0 31 16 63 35 163 99 273 278 295
478 5 40 11 57 21 57 32 0 0 -158 -58 -279 -53 -112 -158 -219 -273 -279 -99
-51 -81 -55 23 -5 150 73 283 238 323 401 9 38 17 52 30 52 17 0 17 -3 3 -52
-63 -217 -236 -393 -445 -452 -30 -8 -65 -17 -79 -19 -14 -3 0 -3 32 -1 177
11 386 163 464 339 27 60 45 77 59 56 6 -10 -30 -79 -76 -147 -47 -69 -153
-160 -231 -198 -77 -38 -172 -66 -223 -66 -16 0 -37 -5 -45 -11 -11 -8 3 -9
50 -4 192 19 352 106 457 249 43 58 68 76 68 48 0 -23 -96 -131 -158 -178
-142 -107 -312 -152 -483 -127 l-49 8 35 6 c34 6 33 7 -5 3 -22 -1 -51 -6 -65
-9 -20 -6 -22 -5 -10 5 13 10 12 11 -3 6 -10 -3 -31 1 -46 9 -16 8 -31 11 -34
8 -4 -3 -15 0 -24 8 -16 13 -17 12 -4 -3 21 -27 -2 -21 -29 7 -12 13 -28 23
-34 22 -6 -1 -10 6 -10 15 1 10 -2 15 -7 13 -4 -3 -12 3 -18 12 -8 14 -11 15
-11 3 0 -9 -6 -5 -15 10 -25 43 -16 12 11 -43 58 -113 158 -213 272 -271 65
-33 189 -66 249 -66 35 0 43 -3 43 -19 0 -16 -6 -18 -47 -14 -159 16 -287 76
-398 188 -80 79 -119 139 -157 238 -15 42 -18 45 -13 17 3 -19 23 -73 45 -119
57 -118 161 -222 280 -279 47 -23 104 -44 128 -48 45 -7 61 -19 45 -35 -13
-13 -116 21 -198 64 -76 40 -190 148 -234 221 -45 74 -79 172 -90 254 -6 50
-9 57 -10 27 -3 -115 68 -295 156 -394 50 -58 170 -142 228 -161 19 -6 35 -16
35 -21 0 -23 -33 -18 -92 12 -90 48 -224 184 -266 271 -42 85 -72 204 -73 287
-1 36 -4 77 -8 90 -11 40 -31 -65 -31 -163 0 -156 58 -301 166 -416 53 -55 62
-70 50 -79 -11 -9 -23 -1 -60 41 -66 74 -110 150 -142 243 -24 69 -28 96 -28
195 -1 84 4 131 17 174 14 44 21 56 28 45 7 -10 8 -5 3 16 -4 21 -3 26 4 16 8
-11 10 -8 9 12 -1 14 -6 23 -11 20 -5 -3 -6 0 -4 8 3 8 11 13 17 11 7 -1 10 2
6 8 -4 6 -1 19 7 28 12 15 11 16 -4 3 -29 -22 -20 3 12 34 16 15 27 32 24 36
-2 4 3 12 13 17 15 9 28 42 16 42 -3 0 -31 -16 -63 -35 -162 -98 -272 -275
-295 -472 -5 -44 -11 -63 -21 -63 -18 0 -18 34 2 123 46 207 188 380 382 463
33 15 45 23 27 19 -16 -3 -64 -22 -105 -42 -149 -72 -285 -241 -321 -401 -7
-31 -18 -52 -26 -52 -20 0 -16 32 12 107 36 96 70 149 139 221 94 98 197 157
330 188 l61 14 -52 -4 c-185 -17 -381 -157 -466 -335 -18 -36 -33 -68 -34 -70
-1 -2 -9 -1 -18 3 -29 11 48 139 140 232 112 114 215 162 410 191 43 6 46 8
18 11 -18 2 -72 -4 -120 -12 -159 -27 -310 -122 -398 -250 -21 -31 -42 -56
-46 -56 -41 0 33 106 126 182 143 117 347 172 510 139 l40 -9 -35 -2 c-19 -1
-29 -4 -22 -7 7 -3 30 -2 50 2 l37 8 -45 15 c-66 21 -240 20 -314 -2 -97 -29
-191 -82 -261 -147 -49 -47 -69 -59 -77 -51 -15 15 16 49 99 108 135 97 244
129 414 121 119 -5 225 -31 198 -48 -8 -5 -9 -9 -4 -9 6 0 16 4 23 9 15 9 -58
44 -129 60 -79 19 -239 13 -315 -10 -74 -22 -165 -68 -201 -101 -20 -19 -53
-19 -53 0 0 10 90 64 151 91 120 53 292 68 414 36 86 -23 188 -72 179 -86 -4
-8 -3 -9 5 -5 6 4 20 2 29 -6 15 -12 16 -11 3 5 -23 29 1 19 36 -15 51 -49 69
-44 30 9 -66 94 -205 186 -337 224 -25 7 -96 13 -157 13 -78 1 -114 5 -117 13
-7 17 72 27 156 18 139 -13 274 -70 373 -157 69 -61 170 -201 123 -172 -7 4
-8 3 -4 -5 4 -6 12 -8 18 -5 8 5 9 1 5 -10 -4 -9 -3 -15 2 -11 5 3 11 2 14 -2
2 -5 2 -1 0 7 -12 44 -82 147 -137 203 -104 104 -269 176 -403 177 -36 0 -43
3 -43 20 0 18 5 20 43 14 182 -26 290 -77 403 -189 60 -60 90 -99 118 -157 22
-43 36 -84 32 -93 -3 -9 -2 -13 4 -10 6 3 10 -2 11 -12 0 -12 2 -13 6 -5 6 17
-28 114 -64 179 -15 26 -61 82 -102 124 -60 60 -94 85 -164 119 -48 23 -106
44 -128 47 -44 6 -52 13 -40 32 7 11 19 10 62 -4 258 -85 429 -287 459 -543 6
-57 8 -60 9 -22 3 120 -59 281 -148 388 -55 66 -172 151 -236 172 -19 6 -35
16 -35 21 0 43 120 -16 220 -108 127 -117 193 -255 209 -435 l8 -93 1 85 c3
147 -41 277 -133 392 -40 51 -119 123 -162 147 -10 5 -14 15 -10 25 6 16 10
15 39 -6 18 -12 60 -50 93 -83z m112 -49 c26 -38 60 -107 77 -155 27 -77 31
-98 30 -201 0 -81 -5 -131 -17 -169 -9 -30 -15 -56 -13 -59 11 -10 48 141 53
214 9 134 -44 310 -122 402 -23 27 -25 35 -14 48 11 13 18 6 56 -52 113 -177
133 -417 48 -601 -14 -31 -23 -58 -20 -61 8 -8 63 118 80 183 31 122 15 282
-40 404 -29 62 -30 71 -10 71 17 0 50 -70 69 -149 35 -138 28 -268 -21 -390
-29 -73 -91 -177 -100 -167 -3 3 -1 11 4 18 6 7 9 31 8 53 -1 22 4 67 11 100
20 89 17 208 -7 295 -28 103 -73 183 -146 261 -47 50 -60 68 -51 77 16 16 65
-32 125 -122z m-442 -51 c125 -32 282 -129 336 -207 18 -27 13 -25 -27 15 -47
44 -82 65 -54 32 18 -22 6 -18 -47 14 -107 66 -239 98 -360 87 -74 -6 -208
-45 -250 -72 -28 -17 -30 -17 -37 1 -8 21 55 51 161 76 159 38 317 17 461 -61
60 -33 80 -34 35 -2 -46 32 -125 69 -188 88 -80 24 -238 24 -319 0 -41 -12
-62 -14 -69 -7 -16 16 -3 23 61 37 81 17 227 17 297 -1z m681 -96 c38 -208
-28 -422 -176 -570 -66 -66 -47 -63 23 4 131 126 193 285 186 476 -4 81 -2 91
14 91 15 0 17 -11 17 -93 0 -161 -55 -318 -150 -429 -42 -49 -154 -138 -173
-138 -6 0 -1 7 11 16 12 8 20 19 18 23 -3 4 11 23 31 42 56 53 127 169 154
250 20 63 24 92 23 199 -1 91 -5 137 -18 169 -13 35 -14 46 -4 52 21 13 28 -3
44 -92z m-845 -234 c-106 -78 -191 -207 -226 -345 -12 -47 -16 -94 -13 -167 3
-96 2 -103 -16 -103 -18 0 -18 7 -13 123 7 167 52 287 149 401 42 49 151 136
170 136 6 0 -17 -20 -51 -45z m-29 -60 c-69 -76 -124 -180 -148 -280 -19 -84
-14 -246 10 -314 13 -35 14 -46 4 -52 -19 -12 -24 -4 -39 63 -23 102 -16 248
15 345 30 92 103 210 166 267 62 55 58 43 -8 -29z m2 -37 c-5 -7 -10 -22 -10
-33 -1 -11 -14 -53 -29 -94 -36 -99 -44 -221 -21 -323 19 -85 69 -197 111
-246 22 -26 25 -36 16 -45 -27 -26 -107 117 -141 249 -34 134 -18 300 40 414
12 23 19 44 16 48 -9 9 -73 -138 -85 -196 -14 -68 -14 -196 0 -264 6 -29 24
-82 40 -117 33 -73 35 -81 14 -81 -8 0 -23 21 -35 47 -38 87 -53 164 -53 273
0 88 5 118 28 189 27 79 100 209 112 198 3 -3 1 -12 -3 -19z m28 -445 c45
-127 141 -250 251 -320 31 -20 36 -27 27 -38 -23 -28 -163 99 -232 210 -67
107 -104 268 -90 387 7 61 7 60 13 -52 4 -85 12 -133 31 -187z m1015 180 c6
-18 -126 -121 -202 -158 -111 -53 -183 -68 -305 -62 -58 3 -125 12 -150 21
-25 9 -34 14 -20 11 14 -3 62 -10 106 -16 170 -22 360 40 487 161 60 58 77 66
84 43z m-905 -121 c70 -105 193 -197 322 -238 67 -22 100 -27 193 -27 79 -1
114 -4 117 -13 8 -20 -79 -26 -177 -14 -189 23 -350 117 -448 262 -21 31 -39
59 -39 62 0 13 8 4 32 -32z m853 -17 c-39 -30 -181 -95 -240 -110 -75 -19
-221 -19 -302 0 -35 8 -91 28 -125 44 -34 17 -64 29 -66 27 -7 -8 91 -57 164
-82 66 -23 96 -27 184 -28 113 0 186 16 274 60 36 18 52 22 60 14 16 -17 -16
-37 -109 -66 -190 -61 -384 -37 -546 67 -80 52 -64 70 25 28 103 -48 177 -62
301 -57 93 4 122 10 190 36 44 18 103 49 130 71 43 33 52 36 65 25 12 -12 12
-16 -5 -29z m-647 -128 c37 -20 96 -43 132 -52 82 -21 234 -21 313 0 71 19 77
19 77 1 0 -20 -121 -46 -218 -46 -90 0 -206 26 -279 63 -67 34 -168 112 -195
150 -17 24 -6 17 41 -25 34 -31 93 -72 129 -91z"/>
<path d="M1406 2144 c-64 -20 -103 -47 -149 -103 -97 -119 -91 -290 14 -406
68 -73 129 -99 241 -101 48 -1 85 3 82 7 -3 5 8 11 23 15 48 12 128 84 159
144 26 49 29 65 29 150 0 85 -3 100 -27 141 -33 56 -107 125 -155 145 -54 23
-159 27 -217 8z m146 -15 c191 -40 291 -232 209 -405 -90 -191 -340 -227 -479
-69 -70 79 -89 176 -56 285 22 75 108 160 185 183 67 19 75 20 141 6z"/>
<path d="M1110 973 c-8 -2 -25 -9 -37 -15 -17 -8 -30 -8 -48 0 -43 20 -109 15
-131 -9 -16 -18 -20 -40 -22 -133 -4 -110 -3 -113 24 -145 26 -32 30 -33 78
-27 28 4 60 7 71 6 11 0 31 0 45 0 14 1 32 1 40 1 13 -1 122 -1 215 -1 17 0
113 -2 215 -5 170 -4 187 -3 211 15 22 16 29 17 45 6 30 -20 214 -19 236 1 10
9 18 22 18 30 0 22 20 15 47 -17 28 -34 62 -39 86 -12 14 15 17 41 17 138 0
109 -2 122 -21 143 -15 16 -27 21 -43 16 -25 -8 -37 -8 -99 1 -32 4 -56 3 -71
-6 -18 -9 -29 -9 -44 -1 -30 16 -74 14 -101 -5 -33 -24 -51 -74 -51 -144 0
-62 -4 -68 -31 -47 -12 9 -18 33 -20 89 -7 125 8 120 -309 117 -146 -2 -274 0
-285 3 -11 3 -27 4 -35 1z m-87 -61 c14 -13 17 -25 13 -52 -7 -41 -7 -42 0
-101 5 -41 3 -49 -17 -63 -13 -9 -43 -16 -66 -16 l-43 0 0 123 c0 68 2 126 4
128 11 10 92 -4 109 -19z m146 11 c18 -16 21 -30 22 -128 2 -110 1 -110 -22
-110 -20 0 -23 4 -21 26 2 20 -2 28 -17 32 -18 4 -21 1 -21 -29 0 -30 -3 -34
-25 -34 l-25 0 0 109 c0 106 1 110 26 130 33 26 55 26 83 4z m321 -14 c0 -15
-7 -19 -35 -19 -32 0 -35 -2 -35 -30 0 -27 3 -30 30 -30 23 0 30 -4 30 -20 0
-16 -7 -20 -30 -20 -27 0 -30 -3 -30 -30 0 -28 3 -30 35 -30 31 0 35 -3 35
-25 0 -24 -3 -25 -60 -25 l-60 0 0 123 c0 68 2 126 4 128 2 2 29 2 60 1 47 -3
56 -7 56 -23z m208 -83 l-3 -96 33 0 c28 0 32 -3 32 -25 0 -24 -3 -25 -55 -25
l-55 0 0 124 c0 110 2 125 18 129 29 6 34 -8 30 -107z m242 94 c18 -18 20 -33
20 -131 0 -109 0 -110 -22 -107 -18 2 -22 9 -20 31 2 21 -1 27 -18 27 -16 0
-20 -6 -20 -30 0 -25 -4 -30 -25 -30 l-25 0 0 108 c0 112 3 122 35 140 30 17
53 14 75 -8z m248 -113 l3 -127 -26 0 -25 0 0 123 c0 68 3 127 7 131 4 4 14 5
23 4 12 -3 15 -25 18 -131z m-854 107 c12 -12 16 -37 16 -103 0 -108 -8 -122
-78 -129 l-52 -5 0 127 0 126 49 0 c32 0 55 -6 65 -16z m296 -4 c0 -16 -7 -20
-35 -20 -32 0 -35 -2 -35 -30 0 -27 3 -30 30 -30 23 0 30 -4 30 -20 0 -16 -7
-20 -30 -20 -27 0 -30 -3 -30 -30 0 -28 3 -30 35 -30 31 0 35 -3 35 -25 0 -24
-3 -25 -60 -25 l-60 0 0 125 0 125 60 0 c53 0 60 -2 60 -20z m472 3 c13 -12
18 -31 18 -74 0 -64 -16 -89 -56 -89 -21 0 -24 -5 -24 -35 0 -31 -3 -35 -25
-35 l-25 0 0 125 0 125 47 0 c29 0 53 -6 65 -17z"/>
<path d="M960 860 c0 -20 5 -30 15 -30 10 0 15 10 15 30 0 20 -5 30 -15 30
-10 0 -15 -10 -15 -30z"/>
<path d="M960 760 c0 -25 4 -31 18 -28 11 2 17 12 17 28 0 16 -6 26 -17 28
-14 3 -18 -3 -18 -28z"/>
<path d="M1110 835 c0 -48 3 -56 18 -53 13 3 17 14 17 53 0 39 -4 50 -17 53
-15 3 -18 -5 -18 -53z"/>
<path d="M1880 835 c0 -48 3 -56 18 -53 13 3 17 14 17 53 0 39 -4 50 -17 53
-15 3 -18 -5 -18 -53z"/>
<path d="M1265 810 c0 -70 2 -80 18 -80 15 0 17 10 17 80 0 70 -2 80 -17 80
-16 0 -18 -10 -18 -80z"/>
<path d="M2040 840 c0 -36 4 -50 14 -50 17 0 23 16 21 55 -3 44 -4 45 -20 45
-11 0 -15 -12 -15 -50z"/>
<path d="M1335 492 c-2 -2 -106 -4 -232 -4 -251 0 -263 -3 -263 -60 0 -25 12
-61 26 -77 10 -11 136 -12 149 -1 11 9 19 9 28 2 9 -8 333 -17 497 -14 194 4
280 9 291 19 11 9 19 8 34 -3 16 -12 56 -14 195 -14 201 2 210 5 210 75 0 72
-9 75 -216 74 -98 0 -190 0 -204 1 -38 2 -57 2 -148 0 l-84 -2 -20 -34 c-20
-35 -38 -44 -38 -21 0 8 -10 23 -22 34 -19 17 -39 22 -111 25 -49 1 -90 1 -92
0z m-327 -81 c-3 -31 -7 -36 -28 -36 -21 0 -25 5 -28 35 -3 24 2 38 14 47 26
19 46 -2 42 -46z m242 31 c0 -12 -3 -13 -12 -4 -19 19 -28 14 -28 -16 0 -36 9
-45 28 -29 13 10 14 9 10 -3 -6 -20 -38 -25 -49 -8 -15 22 -10 66 8 76 22 13
43 4 43 -16z m59 -6 c-10 -20 -10 -29 -1 -38 14 -14 16 -28 4 -28 -5 0 -14 10
-20 23 l-11 22 0 -22 c-2 -44 -21 -23 -21 22 0 25 5 45 10 45 6 0 10 -8 10
-17 0 -14 3 -13 16 5 21 30 28 22 13 -12z m139 -43 l-3 -28 -17 30 -17 30 -1
-27 c0 -16 -4 -28 -10 -28 -5 0 -10 20 -10 45 0 51 13 58 34 18 l15 -28 2 35
c2 31 3 32 6 8 2 -16 3 -40 1 -55z m326 51 c3 -8 1 -14 -3 -14 -5 0 -11 6 -14
13 -2 6 -8 9 -12 4 -5 -4 1 -16 13 -27 12 -12 19 -27 15 -36 -7 -19 -45 -15
-51 6 -4 13 -3 13 10 2 10 -8 18 -9 22 -3 4 6 -3 15 -14 21 -22 12 -26 30 -9
47 14 14 35 7 43 -13z m64 8 c-14 -3 -18 -13 -18 -43 0 -21 -4 -39 -10 -39 -5
0 -10 18 -10 40 0 25 -5 40 -12 41 -7 1 1 5 17 8 17 4 35 5 40 2 6 -3 2 -7 -7
-9z m222 -11 c0 -14 -2 -14 -10 -1 -5 8 -12 11 -16 7 -4 -4 2 -16 14 -27 12
-12 19 -27 15 -36 -7 -19 -45 -15 -51 6 -4 13 -3 13 10 2 10 -8 18 -9 22 -3 4
6 -3 15 -14 21 -22 12 -26 30 -9 47 15 15 39 5 39 -16z m104 -3 c-4 -7 -9 -6
-15 3 -6 10 -11 11 -19 3 -15 -15 -9 -56 9 -62 10 -3 11 2 6 18 -5 16 -4 21 6
18 8 -3 14 -13 14 -24 0 -14 -7 -19 -25 -19 -22 0 -25 5 -28 39 -2 24 2 42 9
47 16 10 52 -9 43 -23z m70 -67 c-4 -3 -9 -1 -11 5 -2 6 -11 20 -19 30 -15 18
-15 18 -9 -8 3 -16 1 -28 -5 -28 -5 0 -10 20 -10 45 0 25 5 45 10 45 6 0 10
-4 10 -8 0 -5 7 -17 16 -28 15 -18 15 -18 10 7 -3 14 -2 29 2 33 4 5 8 -13 10
-39 2 -26 0 -50 -4 -54z m-1330 62 l15 -28 1 28 c0 15 5 27 10 27 6 0 10 -20
10 -45 0 -51 -13 -58 -34 -17 l-15 27 -1 -27 c0 -16 -4 -28 -10 -28 -5 0 -10
20 -10 45 0 51 13 58 34 18z m201 -18 c0 -36 -3 -40 -27 -43 -27 -3 -28 -2
-28 43 0 45 1 46 28 43 24 -3 27 -7 27 -43z m67 0 c9 -25 12 -45 7 -45 -4 0
-9 6 -12 13 -3 10 -9 10 -26 0 -30 -18 -30 -18 -13 32 8 25 18 45 22 45 4 0
14 -20 22 -45z m196 38 c-10 -2 -18 -11 -18 -19 0 -8 4 -13 9 -9 5 3 12 1 16
-5 3 -5 -1 -10 -9 -10 -9 0 -16 -7 -16 -15 0 -9 6 -12 15 -9 8 4 15 1 15 -5 0
-6 -11 -11 -25 -11 -23 0 -25 4 -25 45 0 43 1 45 28 44 16 -1 20 -3 10 -6z
m160 -26 c4 -33 -13 -57 -39 -57 -16 0 -19 8 -19 46 0 44 1 45 28 42 21 -2 28
-9 30 -31z m110 -9 c-2 -36 -7 -44 -25 -46 -16 -2 -23 2 -23 14 0 13 3 14 15
4 13 -11 15 -7 15 29 0 22 5 41 11 41 6 0 9 -17 7 -42z m32 2 c0 -22 5 -40 10
-40 6 0 10 18 10 40 0 22 5 40 11 40 6 0 9 -17 7 -42 -3 -38 -6 -43 -28 -43
-22 0 -25 5 -28 43 -2 25 1 42 7 42 6 0 11 -18 11 -40z m258 28 c27 -27 7 -78
-30 -78 -15 0 -18 8 -18 45 0 37 3 45 18 45 10 0 23 -5 30 -12z m60 5 c-10 -2
-18 -11 -18 -19 0 -8 4 -13 9 -9 5 3 12 1 16 -5 3 -5 -1 -10 -9 -10 -9 0 -16
-7 -16 -15 0 -9 6 -12 15 -9 8 4 15 1 15 -5 0 -6 -11 -11 -25 -11 -23 0 -25 4
-25 45 0 43 1 45 28 44 16 -1 20 -3 10 -6z m102 -38 c0 -25 -3 -45 -7 -45 -5
0 -8 20 -8 45 0 25 3 45 8 45 4 0 7 -20 7 -45z"/>
<path d="M965 430 c-4 -12 -1 -28 6 -36 11 -14 13 -14 21 1 10 17 2 55 -12 55
-5 0 -12 -9 -15 -20z"/>
<path d="M1490 415 c0 -22 4 -34 10 -30 6 3 10 17 10 30 0 13 -4 27 -10 30 -6
4 -10 -8 -10 -30z"/>
<path d="M1900 421 c0 -17 5 -31 10 -31 6 0 10 11 10 24 0 14 -4 28 -10 31 -6
4 -10 -7 -10 -24z"/>
</g>
</svg>
